<svg enable-background="new 0 0 140 140" height="512" viewBox="0 0 140 140" width="512" xmlns="http://www.w3.org/2000/svg"><circle cx="70" cy="70" fill="#4abba4" r="64"/><path d="m95.5590897 34.5026283h-56.1900025c-2.6799927 0-4.8599854 2.1799927-4.8599854 4.8699951v56.1799965c0 1.4099731.5999756 2.6599731 1.5499878 3.5499878l34.8668213 34.8740158c34.6098633-.492981 62.5608444-28.4457932 63.0508347-63.0563278l-34.9876633-34.9876747c-.8800048-.8900146-2.0900268-1.4299927-3.4299926-1.4299927z" opacity=".1"/><path d="m34.507576 95.5554886c0 2.6860352 2.1773071 4.8631592 4.8632202 4.8631592h56.1845703c2.6859741 0 4.8633423-2.177124 4.8633423-4.8631592v-51.0797005h-65.9111328z" fill="#ededed"/><path d="m95.5553665 34.5076332h-56.1845703c-2.6859131 0-4.8632202 2.1775513-4.8632202 4.8634033v5.3047485h65.9111328v-5.3047485c0-2.685852-2.1773682-4.8634033-4.8633423-4.8634033z" fill="#344d5b"/><path d="m41.683449 51.714562h51.559353v17.991957h-51.559353z" fill="#feda6f"/><path d="m41.683449 74.477776h14.37545v14.37545h-14.37545z" fill="#de594e"/><path d="m60.275402 74.477776h14.37545v14.37545h-14.37545z" fill="#4da0dc"/><path d="m78.867355 74.477776h14.37545v14.37545h-14.37545z" fill="#dbd8dd"/><g fill="#ededed"><circle cx="90.644" cy="39.368" r="1.67"/><circle cx="84.482" cy="39.368" r="1.67"/><circle cx="78.321" cy="39.368" r="1.67"/></g><path d="m105.5526047 84.5949173h-16.9069062v-9.5536499c0-4.6612625 3.7921906-8.4534531 8.4534531-8.4534531s8.4534531 3.7921906 8.4534531 8.4534531zm-13.9392319-2.9676743h10.9715576v-6.5859756c0-3.02491-2.4608688-5.4857788-5.4857788-5.4857788-3.0249176 0-5.4857788 2.4608688-5.4857788 5.4857788z" fill="#344d5b"/><path d="m107.8254318 82.4140854v16.4873886c0 .8383484-.6788406 1.5172119-1.513504 1.5172119h-18.4218521c-.419136 0-.7975235-.1706314-1.0720291-.4451599-.2745056-.2745056-.4451752-.6528702-.4451752-1.072052v-16.4873886c0-.8383713.678833-1.5172119 1.5172043-1.5172119h18.4218521c.4191895 0 .7975769.1706238 1.068367.4451294.2745056.2745285.445137.652893.445137 1.0720825z" fill="#de594e"/><path d="m99.0335236 89.4872513c0-1.0681839-.8659439-1.9341278-1.9341278-1.9341278s-1.9341812.8659439-1.9341812 1.9341278c0 .7096558.3863983 1.3234253.9561539 1.6599426l-.3343735 2.615242h2.6247482l-.3344116-2.615242c.5697936-.3365173.956192-.9502869.956192-1.6599426z" fill="#293b44"/></svg>